<?xml version="1.0" encoding="utf-8"?>
<!-- Generator: Adobe Illustrator 18.0.0, SVG Export Plug-In . SVG Version: 6.00 Build 0)  -->
<!DOCTYPE svg PUBLIC "-//W3C//DTD SVG 1.1//EN" "http://www.w3.org/Graphics/SVG/1.1/DTD/svg11.dtd">
<svg version="1.1" xmlns="http://www.w3.org/2000/svg" xmlns:xlink="http://www.w3.org/1999/xlink" x="0px" y="0px"
	 viewBox="0 0 612 792" enable-background="new 0 0 612 792" xml:space="preserve">
<g id="Layer_2" display="none">
	<rect display="inline" fill="#CDCCCC" width="612" height="792"/>
	<rect y="740" display="inline" fill="#ABABAB" width="612" height="52"/>
</g>
<g id="Layer_1">
	<g>
		<path fill="none" stroke="#C16F70" stroke-width="10" stroke-miterlimit="10" d="M317,143H36c-8.3,0-15,6.8-15,15v637"/>
	</g>
	<g>
		<path fill="none" stroke="#C16F70" stroke-width="10" stroke-miterlimit="10" d="M556.4-100v238c0,2.8-2.3,5-5,5H317"/>
	</g>
	<g>
		<path fill="none" stroke="#C16F70" stroke-width="10" stroke-miterlimit="10" d="M316,155H38.3c-2.8,0-5,2.3-5,5v647"/>
	</g>
	<g>
		<path fill="none" stroke="#C16F70" stroke-width="10" stroke-miterlimit="10" d="M568.7-88v228c0,8.3-6.8,15-15,15H316"/>
	</g>
</g>
<g id="Layer_3" display="none">
	<rect x="21" y="27.5" display="inline" fill="none" width="436" height="90.5"/>
	<text transform="matrix(1 0 0 1 21 65.4473)" display="inline"><tspan x="0" y="0" fill="#010101" font-family="'Arial-BoldMT'" font-size="53">partnership</tspan><tspan x="0" y="52" fill="#010101" font-family="'Arial-BoldMT'" font-size="53">benefits</tspan></text>
</g>
</svg>
