<?xml version="1.0" encoding="utf-8"?>
<!-- Generator: Adobe Illustrator 18.0.0, SVG Export Plug-In . SVG Version: 6.00 Build 0)  -->
<!DOCTYPE svg PUBLIC "-//W3C//DTD SVG 1.1//EN" "http://www.w3.org/Graphics/SVG/1.1/DTD/svg11.dtd">
<svg version="1.1" xmlns="http://www.w3.org/2000/svg" xmlns:xlink="http://www.w3.org/1999/xlink" x="0px" y="0px"
	 viewBox="0 0 612 792" enable-background="new 0 0 612 792" xml:space="preserve">
<g id="Layer_1" display="none">
	<rect display="inline" fill="#CDCCCC" width="612" height="792"/>
	<rect y="740" display="inline" fill="#ABABAB" width="612" height="52"/>
</g>
<g id="Layer_4" display="none">
	<polyline display="inline" fill="#C4C7CC" points="490,295.5 605.4,295.5 605.4,725.5 27,725.5 275,397.5 346,397.5 	"/>
</g>
<g id="Layer_2">
	<g>
		<path fill="none" stroke="#C16F70" stroke-width="10" stroke-miterlimit="10" d="M568.7-65V82c0,5.5-3.5,12.9-7.7,16.4l-79.3,66.2
			c-4.2,3.5-7.7,10.9-7.7,16.4v77c0,5.5-3.6,12.7-8,16L342,368c-4.4,3.3-12.5,6-18,6h-18"/>
	</g>
	<g>
		<path fill="none" stroke="#BC2029" stroke-width="10" stroke-miterlimit="10" d="M626.6,282H484c-5.5,0-13.6,2.7-18,6.1L347,378.9
			c-4.4,3.3-12.5,6.1-18,6.1h-52c-5.5,0-12.8,3.6-16.1,7.9L-12,745"/>
	</g>
	<g>
		<path fill="none" stroke="#C16F70" stroke-width="10" stroke-miterlimit="10" d="M556.2-71V76c0,5.5-3.5,12.9-7.7,16.4l-79.3,66.2
			c-4.2,3.5-7.7,10.9-7.7,16.4v77c0,5.5-3.6,12.7-7.9,16.1l-116.1,88.8c-4.4,3.3-12.4,5.9-17.9,5.7l-16-0.6"/>
	</g>
	<g>
		<path fill="none" stroke="#B52025" stroke-width="10" stroke-miterlimit="10" d="M302.5,34v74.7c0,5.5,2.6,13.7,5.8,18.1l17.1,24
			c3.2,4.5,5.8,12.6,5.9,18.1l1.2,172.1c0,5.5-4.4,10-9.9,10l-15.7,0"/>
	</g>
	<g>
		<path fill="none" stroke="#AA666D" stroke-width="10" stroke-miterlimit="10" d="M297.7,374H243c-5.5,0-12.5-3.8-15.5-8.3
			l-12.4-18.7c-3-4.6-8.5-5-12.2-0.9L97,464.8c-3.7,4.1-9.9,4.4-13.9,0.6L15,401"/>
	</g>
	<g>
		<path fill="none" stroke="#F37784" stroke-width="10" stroke-miterlimit="10" d="M204.8,310.9l-7-10.6c-3-4.6-10-8.3-15.5-8.3
			l-238.6,0"/>
	</g>
	<g>
		<path fill="none" stroke="#F37784" stroke-width="10" stroke-miterlimit="10" d="M304,362.8h-59.7c-2.8,0-6.2-1.9-7.8-4.2
			l-31.7-47.8"/>
	</g>
	<g>
		<path fill="none" stroke="#D81F27" stroke-width="10" stroke-miterlimit="10" d="M310.2,351.1h-63.7c-0.6,0-1.2-0.4-1.6-0.8
			L218.3,310c-0.3-0.5-0.6-1.3-0.6-1.8l0-153.7"/>
	</g>
</g>
<g id="Layer_3">
	<path fill="#FFFFFF" stroke="#6F0E10" stroke-width="6" stroke-miterlimit="10" d="M311.5,389.9c0,1.6-3,2.9-5.5,2.9l0,0
		c-2.5,0-5.5-1.3-5.5-2.9v-45c0-1.6,3-2.9,5.5-2.9l0,0c2.5,0,5.5,1.3,5.5,2.9V389.9z"/>
</g>
</svg>
