<?xml version="1.0" encoding="utf-8"?>
<!-- Generator: Adobe Illustrator 18.0.0, SVG Export Plug-In . SVG Version: 6.00 Build 0)  -->
<!DOCTYPE svg PUBLIC "-//W3C//DTD SVG 1.1//EN" "http://www.w3.org/Graphics/SVG/1.1/DTD/svg11.dtd">
<svg version="1.1" xmlns="http://www.w3.org/2000/svg" xmlns:xlink="http://www.w3.org/1999/xlink" x="0px" y="0px"
	 viewBox="0 0 612 792" enable-background="new 0 0 612 792" xml:space="preserve">
<g id="Layer_2" display="none">
	<rect display="inline" fill="#CDCCCC" width="612" height="792"/>
	<rect y="740" display="inline" fill="#ABABAB" width="612" height="52"/>
</g>
<g id="Layer_1">
	<g>
		<path fill="none" stroke="#C16F70" stroke-width="10" stroke-miterlimit="10" d="M208.9,84.6L119.5,115c-5.2,1.8-9.5,7.7-9.5,13.2
			V692"/>
	</g>
	<g>
		<path fill="none" stroke="#C16F70" stroke-width="10" stroke-miterlimit="10" d="M320.5-187.8L319.7,42c0,2.7-2.1,5.7-4.8,6.6
			l-106.1,36"/>
	</g>
	<g>
		<line fill="none" stroke="#BC2026" stroke-width="10" stroke-miterlimit="10" x1="86" y1="-12.1" x2="86" y2="831.3"/>
	</g>
	<g>
		<line fill="none" stroke="#BC2026" stroke-width="10" stroke-miterlimit="10" x1="98" y1="-26.8" x2="98" y2="816.7"/>
	</g>
	<g>
		<path fill="none" stroke="#89181A" stroke-width="10" stroke-miterlimit="10" d="M627,20.5l-138.2,0c-2.8,0-6.3-1.8-7.9-4.1
			L-18.8-691"/>
	</g>
	<g>
		<line fill="none" stroke="#BC2026" stroke-width="10" stroke-miterlimit="10" x1="74" y1="2.5" x2="74" y2="846"/>
	</g>
	<g>
		<path fill="none" stroke="#89181A" stroke-width="10" stroke-miterlimit="10" d="M621,32.6l-133.2,0c-5.5,0-12.6-3.7-15.8-8.2
			L-24.8-679"/>
	</g>
	<g>
		<path fill="none" stroke="#89181A" stroke-width="10" stroke-miterlimit="10" d="M615,45l-128.2,0c-8.3,0-18.9-5.5-23.7-12.3
			L-30.8-666.5"/>
	</g>
	<g>
		<path fill="none" stroke="#C16F70" stroke-width="10" stroke-miterlimit="10" d="M122,665v23c0,2.8,2,6,4.4,7.3L327.5,799"/>
	</g>
	<g>
		<path fill="none" stroke="#C16F70" stroke-width="10" stroke-miterlimit="10" d="M224.2,91.5l-97.4,33.1c-2.6,0.9-4.7,3.9-4.7,6.6
			V665"/>
	</g>
	<g>
		<path fill="none" stroke="#C16F70" stroke-width="10" stroke-miterlimit="10" d="M332.5-179.8L331.7,45c0,5.5-4.3,11.4-9.5,13.2
			l-98,33.3"/>
	</g>
	<g>
		<path fill="none" stroke="#F48691" stroke-width="10" stroke-miterlimit="10" d="M616.8,167l-145.5,98.2
			c-4.6,3.1-12.8,5.6-18.3,5.6L42,271.6c-5.5,0-10,4.5-10,10l0,259.9c0,5.5,4.5,10,10,10l581-1.1"/>
	</g>
	<g>
		<path fill="none" stroke="#C16F70" stroke-width="10" stroke-miterlimit="10" d="M110,672v18c0,5.5,4,12.1,8.9,14.6L315.5,806"/>
	</g>
</g>
<g id="Layer_3" display="none">
	<rect x="129" y="219.5" display="inline" fill="none" width="436" height="44.5"/>
	
		<text transform="matrix(1 0 0 1 128.9998 257.4473)" display="inline" fill="#010101" font-family="'Arial-BoldMT'" font-size="53">our mission</text>
</g>
</svg>
