<?xml version="1.0" encoding="utf-8"?>
<!-- Generator: Adobe Illustrator 18.0.0, SVG Export Plug-In . SVG Version: 6.00 Build 0)  -->
<!DOCTYPE svg PUBLIC "-//W3C//DTD SVG 1.1//EN" "http://www.w3.org/Graphics/SVG/1.1/DTD/svg11.dtd">
<svg version="1.1" xmlns="http://www.w3.org/2000/svg" xmlns:xlink="http://www.w3.org/1999/xlink" x="0px" y="0px"
	 viewBox="0 0 612 792" enable-background="new 0 0 612 792" xml:space="preserve">
<g id="Layer_2" display="none">
	<rect display="inline" fill="#CDCCCC" width="612" height="792"/>
	<rect y="740" display="inline" fill="#ABABAB" width="612" height="52"/>
</g>
<g id="Layer_4" display="none">
	<rect x="21" y="181" display="inline" fill="#C4C7CC" width="504.4" height="149"/>
	<rect x="435" y="-4" display="inline" fill="#C4C7CC" width="32" height="192"/>
</g>
<g id="Layer_1">
	<g>
		<path fill="none" stroke="#C16F70" stroke-width="10" stroke-miterlimit="10" d="M122-99l437.5,225.7c4.9,2.5,8.9,9.1,8.9,14.6
			l0,669.7"/>
	</g>
	<g>
		<path fill="none" stroke="#C16F70" stroke-width="10" stroke-miterlimit="10" d="M169.7-61.4l382.2,197.1c2.4,1.3,4.4,4.5,4.4,7.3
			l0,674.7"/>
	</g>
	<g>
		<path fill="none" stroke="#BC2026" stroke-width="10" stroke-miterlimit="10" d="M98-27v58c0,2.7,2.3,5,5,5l514,0"/>
	</g>
	<g>
		<path fill="none" stroke="#BC2026" stroke-width="10" stroke-miterlimit="10" d="M85.7-26v59c0,8.3,6.8,15,15,15L617,48"/>
	</g>
	<g>
		<path fill="none" stroke="#BC2026" stroke-width="10" stroke-miterlimit="10" d="M74-27v62c0,13.8,11.3,25,25,25l525,0"/>
	</g>
	<line fill="none" stroke="#941E23" stroke-width="10" stroke-miterlimit="10" x1="-4" y1="357" x2="597" y2="357"/>
	<line fill="none" stroke="#941E23" stroke-width="10" stroke-miterlimit="10" x1="-4" y1="369" x2="597" y2="369"/>
	<line fill="none" stroke="#941E23" stroke-width="10" stroke-miterlimit="10" x1="-4" y1="381" x2="597" y2="381"/>
</g>
<g id="Layer_5">
	<path fill="#FFFFFF" stroke="#6F0E10" stroke-width="6" stroke-miterlimit="10" d="M544.5,391.3c0,1.6-3,2.9-5.5,2.9l0,0
		c-2.5,0-5.5-1.3-5.5-2.9v-44.5c0-1.6,3-2.9,5.5-2.9l0,0c2.5,0,5.5,1.3,5.5,2.9V391.3z"/>
	<circle fill="#FFFFFF" stroke="#941E22" stroke-width="6" stroke-miterlimit="10" cx="111" cy="381" r="8"/>
	<circle fill="#FFFFFF" stroke="#941E22" stroke-width="6" stroke-miterlimit="10" cx="280.5" cy="381" r="8"/>
	<circle fill="#FFFFFF" stroke="#941E22" stroke-width="6" stroke-miterlimit="10" cx="438" cy="381" r="8"/>
</g>
<g id="Layer_3" display="none">
	<rect x="21" y="79.5" display="inline" fill="none" width="436" height="90.5"/>
	<text transform="matrix(1 0 0 1 20.9998 117.4473)" display="inline"><tspan x="0" y="0" fill="#010101" font-family="'Arial-BoldMT'" font-size="53">partner with</tspan><tspan x="0" y="44" fill="#010101" font-family="'Arial-BoldMT'" font-size="53">us</tspan></text>
	
		<rect x="21" y="592" display="inline" fill="none" stroke="#000000" stroke-width="2" stroke-miterlimit="10" width="502.9" height="138"/>
</g>
</svg>
