<?xml version="1.0" encoding="utf-8"?>
<!-- Generator: Adobe Illustrator 18.0.0, SVG Export Plug-In . SVG Version: 6.00 Build 0)  -->
<!DOCTYPE svg PUBLIC "-//W3C//DTD SVG 1.1//EN" "http://www.w3.org/Graphics/SVG/1.1/DTD/svg11.dtd">
<svg version="1.1" xmlns="http://www.w3.org/2000/svg" xmlns:xlink="http://www.w3.org/1999/xlink" x="0px" y="0px"
	 viewBox="0 0 612 792" enable-background="new 0 0 612 792" xml:space="preserve">
<g id="Layer_2" display="none">
	<rect display="inline" fill="#CDCCCC" width="612" height="792"/>
	<rect y="740" display="inline" fill="#ABABAB" width="612" height="52"/>
</g>
<g id="Layer_1">
	<g>
		<line fill="none" stroke="#C16F70" stroke-width="10" stroke-miterlimit="10" x1="109" y1="-209.5" x2="109" y2="801"/>
	</g>
	<g>
		<line fill="none" stroke="#C16F70" stroke-width="10" stroke-miterlimit="10" x1="96.6" y1="-48" x2="96.6" y2="801"/>
	</g>
	<g>
		<line fill="none" stroke="#834040" stroke-width="10" stroke-miterlimit="10" x1="157" y1="-29.5" x2="157" y2="42"/>
	</g>
	<g>
		<path fill="none" stroke="#834040" stroke-width="10" stroke-miterlimit="10" d="M157,0v77c0,5.5-3.7,12.5-8.3,15.5L-55,228"/>
	</g>
	<g>
		<path fill="none" stroke="#834040" stroke-width="10" stroke-miterlimit="10" d="M169-14v93c0,8.3-5.6,18.7-12.5,23.3L-47,238"/>
	</g>
	<g>
		<path fill="none" stroke="#B52225" stroke-width="10" stroke-miterlimit="10" d="M145-34v70c0,2.8,2.3,5,5,5h479"/>
	</g>
	<g>
		<path fill="none" stroke="#B52225" stroke-width="10" stroke-miterlimit="10" d="M133-22v60c0,8.3,6.8,15,15,15h469"/>
	</g>
	<g>
		<path fill="none" stroke="#B52225" stroke-width="10" stroke-miterlimit="10" d="M121-10v50c0,13.8,11.3,25,25,25h479"/>
	</g>
	<g>
		<path fill="none" stroke="#7F1D22" stroke-width="10" stroke-miterlimit="10" d="M-13,725h369c5.5,0,12.9,3.4,16.5,7.6L436,807"/>
	</g>
</g>
<g id="Layer_3">
	<circle fill="#FFFFFF" stroke="#C16F70" stroke-width="6" stroke-miterlimit="10" cx="109" cy="209" r="8"/>
	<circle fill="#FFFFFF" stroke="#B52225" stroke-width="6" stroke-miterlimit="10" cx="241" cy="65" r="8"/>
	<circle fill="#FFFFFF" stroke="#B52225" stroke-width="6" stroke-miterlimit="10" cx="546" cy="41" r="8"/>
</g>
<g id="Layer_4" display="none">
	<rect x="157" y="87" display="inline" fill="none" width="436" height="113"/>
	<text transform="matrix(1 0 0 1 404.5498 124.9473)" display="inline"><tspan x="0" y="0" fill="#010101" font-family="'Arial-BoldMT'" font-size="53">table of</tspan><tspan x="-32.4" y="51" fill="#010101" font-family="'Arial-BoldMT'" font-size="53">contents</tspan></text>
</g>
</svg>
