<?xml version="1.0" encoding="utf-8"?>
<!-- Generator: Adobe Illustrator 18.0.0, SVG Export Plug-In . SVG Version: 6.00 Build 0)  -->
<!DOCTYPE svg PUBLIC "-//W3C//DTD SVG 1.1//EN" "http://www.w3.org/Graphics/SVG/1.1/DTD/svg11.dtd">
<svg version="1.1" xmlns="http://www.w3.org/2000/svg" xmlns:xlink="http://www.w3.org/1999/xlink" x="0px" y="0px"
	 viewBox="0 0 612 792" enable-background="new 0 0 612 792" xml:space="preserve">
<g id="Layer_2" display="none">
	<rect display="inline" fill="#CDCCCC" width="612" height="792"/>
	<rect y="740" display="inline" fill="#ABABAB" width="612" height="52"/>
</g>
<g id="Layer_4" display="none">
	<rect x="120.9" y="-3" display="inline" fill="#C4C7CC" width="32" height="215"/>
	<polyline display="inline" fill="#C4C7CC" points="120.9,227.4 120.9,209 578.9,209 578.9,541.2 349.9,541.2 	"/>
</g>
<g id="Layer_1">
	<g>
		<path fill="none" stroke="#C16F70" stroke-width="10" stroke-miterlimit="10" d="M64-129.1V167c0,5.5,2.6,13.7,5.8,18.2
			l256.3,361.9c3.2,4.5,5.8,12.7,5.7,18.2L331,801"/>
	</g>
	<g>
		<path fill="none" stroke="#C16F70" stroke-width="10" stroke-miterlimit="10" d="M52.6-124.1V172c0,5.5,2.6,13.7,5.8,18.2
			l256.3,361.9c3.2,4.5,5.8,12.7,5.7,18.2L319.6,806"/>
	</g>
	<g>
		<path fill="none" stroke="#BC2026" stroke-width="10" stroke-miterlimit="10" d="M-33,131H74c0,0,0,0,0,0v690"/>
	</g>
	<g>
		<path fill="none" stroke="#BC2026" stroke-width="10" stroke-miterlimit="10" d="M-21,119h97c5.5,0,10,4.5,10,10v680"/>
	</g>
	<g>
		<path fill="none" stroke="#BC2026" stroke-width="10" stroke-miterlimit="10" d="M-9,107h87c11,0,20,9,20,20v670"/>
	</g>
	<line fill="none" stroke="#89181A" stroke-width="10" stroke-miterlimit="10" x1="509" y1="848.2" x2="-18.8" y2="101"/>
	<line fill="none" stroke="#89181A" stroke-width="10" stroke-miterlimit="10" x1="477" y1="824.6" x2="-50.8" y2="77.4"/>
	<line fill="none" stroke="#89181A" stroke-width="10" stroke-miterlimit="10" x1="490.7" y1="866" x2="-37.1" y2="118.8"/>
	<g>
		<path fill="none" stroke="#AA7177" stroke-width="10" stroke-miterlimit="10" d="M632,683l-423.3,0.5c-5.5,0-12.6-3.7-15.8-8.2
			L-36.2,351"/>
	</g>
	<g>
		<path fill="none" stroke="#AA7177" stroke-width="10" stroke-miterlimit="10" d="M625,695l-418.3,0.5c-8.2,0-18.9-5.5-23.7-12.2
			L-43.2,363"/>
	</g>
	<g>
		<path fill="none" stroke="#AA7177" stroke-width="10" stroke-miterlimit="10" d="M618,707l-413.3,0.5c-11,0-25.2-7.3-31.5-16.3
			L-50.2,375"/>
	</g>
	<g>
		<g>
			<path fill="#AA7177" d="M860,525.5c3.2,0,3.2-5,0-5S856.8,525.5,860,525.5L860,525.5z"/>
		</g>
	</g>
</g>
<g id="Layer_5">
	<path fill="#FFFFFF" stroke="#6F0E10" stroke-width="6" stroke-miterlimit="10" d="M271.1,569.9c-1.8,1.8-5.3,1.1-7.1-0.7l0,0
		c-1.8-1.8-2.5-5.3-0.7-7.1l49.5-49.5c1.8-1.8,5.3-1.1,7.1,0.7l0,0c1.8,1.8,2.5,5.3,0.7,7.1L271.1,569.9z"/>
	<circle fill="#FFFFFF" stroke="#C16F70" stroke-width="6" stroke-miterlimit="10" cx="64" cy="22" r="8"/>
	<circle fill="#FFFFFF" stroke="#C16F70" stroke-width="6" stroke-miterlimit="10" cx="144.9" cy="290" r="8"/>
	<circle fill="#FFFFFF" stroke="#C16F70" stroke-width="6" stroke-miterlimit="10" cx="320.5" cy="758" r="8"/>
	<circle fill="#FFFFFF" stroke="#AA7177" stroke-width="6" stroke-miterlimit="10" cx="245.1" cy="683.5" r="8"/>
	<circle fill="#FFFFFF" stroke="#AA7177" stroke-width="6" stroke-miterlimit="10" cx="541.9" cy="695.5" r="8"/>
	<circle fill="#FFFFFF" stroke="#AA7177" stroke-width="6" stroke-miterlimit="10" cx="32.5" cy="492.4" r="8"/>
	<circle fill="#FFFFFF" stroke="#AA7177" stroke-width="6" stroke-miterlimit="10" cx="128.9" cy="630" r="8"/>
</g>
<g id="Layer_3" display="none">
	<rect x="113.9" y="153.5" display="inline" fill="none" width="436" height="44.5"/>
	
		<text transform="matrix(1 0 0 1 113.8696 191.4473)" display="inline" fill="#010101" font-family="'Arial-BoldMT'" font-size="53">our theme</text>
</g>
</svg>
