<?xml version="1.0" encoding="utf-8"?>
<!-- Generator: Adobe Illustrator 21.0.0, SVG Export Plug-In . SVG Version: 6.00 Build 0)  -->
<svg version="1.1" id="Layer_1" xmlns="http://www.w3.org/2000/svg" xmlns:xlink="http://www.w3.org/1999/xlink" x="0px" y="0px"
	 viewBox="0 0 62.068 150" style="enable-background:new 0 0 62.068 150;" xml:space="preserve">
<style type="text/css">
	.st0{fill:#5BAF5D;}
	.st1{fill:#66C468;}
	.st2{fill:#76E378;}
	.st3{fill:#4D944F;}
	.st4{fill:#9AC4F0;}
	.st5{fill:#E0E1E2;}
	.st6{fill:#958079;}
	.st7{fill:#444B52;}
	.st8{fill:#6D6E71;}
	.st9{fill:#8D8F92;}
	.st10{fill:#855E3C;}
	.st11{fill:#A37C50;}
	.st12{fill:#805E3A;}
	.st13{fill:#6C4A30;}
	.st14{fill:#FFFFFF;}
	.st15{fill:#FCD75F;}
	.st16{fill:#EB5252;}
	.st17{fill:#B09A7D;}
	.st18{fill:#325743;}
	.st19{fill:#8C6645;}
	.st20{fill:#B58A64;}
	.st21{fill:#6E5036;}
	.st22{fill:#52351C;}
	.st23{fill:#D1D3D4;}
	.st24{fill:#6B6A6E;}
	.st25{fill:#68696B;}
	.st26{fill:#757578;}
	.st27{fill:#737476;}
	.st28{fill:#F1F2F2;}
	.st29{fill:#BABCBD;}
	.st30{fill:#38B077;}
	.st31{fill:#40A7FF;}
	.st32{fill:#4081FF;}
	.st33{fill:#4B5582;}
	.st34{fill:#3ECFCF;}
	.st35{fill:#89E2E2;}
	.st36{fill:#FF84C1;}
	.st37{fill:#FFB3D1;}
	.st38{fill:#FF99C1;}
	.st39{fill:#FFC642;}
	.st40{fill:#14E398;}
	.st41{fill:#FF91F6;}
	.st42{fill:#6BFFC9;}
	.st43{fill:#FF6BF3;}
	.st44{fill:#FFD67D;}
	.st45{fill:#425B80;}
	.st46{fill:#F2AC32;}
	.st47{fill:#F268EB;}
	.st48{fill:#00A7E8;}
	.st49{fill:#C7A983;}
	.st50{fill:#AD895D;}
	.st51{fill:#5E5755;}
	.st52{fill:#F24129;}
	.st53{fill:#C73522;}
	.st54{fill:#423E3A;}
</style>
<g>
	<ellipse class="st30" cx="30.5" cy="146.773" rx="22.5" ry="3.227"/>
</g>
<g>
	<g>
		<path class="st31" d="M9,74.53v-2.29c0-2.36,0.37-4.64,1.06-6.77l4,4L9,74.53z"/>
	</g>
	<g>
		<polygon class="st31" points="9,74.53 14.06,69.47 19.73,75.14 15.62,79.24 12.33,79.24 9.43,76.34 9,76.34 		"/>
	</g>
	<g>
		<path class="st31" d="M14.06,69.47l-4-4c0.87-2.69,2.24-5.15,4.01-7.28l0.08,0.07l5.56,5.56L14.06,69.47z"/>
	</g>
	<g>
		<polygon class="st31" points="12.33,79.24 9,79.24 9,76.34 9.43,76.34 		"/>
	</g>
	<g>
		<path class="st31" d="M50.09,79.24H53V84v19.24c0,12.15-9.85,22-22,22s-22-9.85-22-22V84v-4.76h3.33h3.29h8.21h3.28h8.02h3.47
			h7.66H50.09z"/>
	</g>
	<g>
		<polygon class="st31" points="53,76.34 53,79.24 50.09,79.24 52.99,76.34 		"/>
	</g>
	<g>
		<polygon class="st31" points="53,74.82 53,76.34 52.99,76.34 50.09,79.24 46.26,79.24 42.43,75.41 47.99,69.85 52.96,74.82 		"/>
	</g>
	<g>
		<path class="st31" d="M53,72.24v2.58h-0.04l-4.97-4.97l3.83-3.83l0.26-0.08C52.68,67.94,53,70.05,53,72.24z"/>
	</g>
	<g>
		<path class="st31" d="M52.08,65.94l-0.26,0.08l-3.83,3.83l-5.74-5.75l5.71-5.71l0.09-0.07C49.86,60.54,51.25,63.12,52.08,65.94z"
			/>
	</g>
	<g>
		<path class="st31" d="M48.05,58.32l-0.09,0.07l-5.71,5.71l-5.74-5.74l5.29-5.29c1.75,0.98,3.35,2.2,4.76,3.61
			C47.08,57.2,47.58,57.75,48.05,58.32z"/>
	</g>
	<g>
		<polygon class="st31" points="42.25,64.1 47.99,69.85 42.43,75.41 36.68,69.67 		"/>
	</g>
	<g>
		<polygon class="st31" points="46.26,79.24 38.6,79.24 42.43,75.41 		"/>
	</g>
	<g>
		<polygon class="st31" points="42.43,75.41 38.6,79.24 35.13,79.24 31.12,75.23 36.68,69.67 		"/>
	</g>
	<g>
		
			<rect x="32.656" y="59.956" transform="matrix(0.7071 -0.7071 0.7071 0.7071 -34.547 44.6261)" class="st31" width="7.877" height="8.118"/>
	</g>
	<g>
		<path class="st31" d="M41.8,53.07l-5.29,5.29l-5.67-5.67l2.26-2.26l0.01-0.09C36.25,50.64,39.19,51.59,41.8,53.07z"/>
	</g>
	<g>
		<path class="st31" d="M41.23,146.18v0.01h-21.8c4.74-0.08,8.54-3.94,8.54-8.68v-8.27l0.05-0.41C29,128.94,29.99,129,31,129
			c0.67,0,1.33-0.03,1.98-0.08l0.02,0.32v8.27C33,142.15,36.65,145.95,41.23,146.18z"/>
	</g>
	<g>
		
			<rect x="27.098" y="65.521" transform="matrix(0.7071 -0.7071 0.7071 0.7071 -40.112 42.321)" class="st31" width="7.863" height="8.118"/>
	</g>
	<g>
		
			<rect x="26.951" y="54.301" transform="matrix(0.7071 -0.7071 0.7071 0.7071 -32.1839 38.9211)" class="st31" width="7.877" height="8.019"/>
	</g>
	<g>
		<polygon class="st31" points="35.13,79.24 27.11,79.24 31.12,75.23 		"/>
	</g>
	<g>
		<path class="st31" d="M33.11,50.34l-0.01,0.09l-2.26,2.26l-2.31-2.31c0.81-0.09,1.63-0.14,2.47-0.14
			C31.71,50.24,32.42,50.27,33.11,50.34z"/>
	</g>
	<g>
		<polygon class="st31" points="31.12,75.23 27.11,79.24 23.83,79.24 19.73,75.14 25.38,69.49 		"/>
	</g>
	<g>
		
			<rect x="21.393" y="59.866" transform="matrix(0.7071 -0.7071 0.7071 0.7071 -37.7489 36.616)" class="st31" width="7.863" height="8.019"/>
	</g>
	<g>
		<path class="st31" d="M30.84,52.69l-5.57,5.57l-5.15-5.15c2.53-1.44,5.37-2.39,8.41-2.73L30.84,52.69z"/>
	</g>
	<g>
		
			<rect x="15.725" y="65.471" transform="matrix(0.7071 -0.7071 0.7071 0.7071 -43.3539 34.2944)" class="st31" width="7.99" height="8.019"/>
	</g>
	<g>
		<path class="st31" d="M20.12,53.11l5.15,5.15l-5.56,5.56l-5.56-5.56l-0.08-0.07C15.76,56.16,17.81,54.43,20.12,53.11z"/>
	</g>
	<g>
		<polygon class="st31" points="23.83,79.24 15.62,79.24 19.73,75.14 		"/>
	</g>
	<g>
		<path class="st31" d="M52.08,65.94c-0.83-2.82-2.22-5.4-4.03-7.62c-0.47-0.57-0.97-1.12-1.49-1.64c-1.41-1.41-3.01-2.63-4.76-3.61
			c-2.61-1.48-5.55-2.43-8.69-2.73c-0.69-0.07-1.4-0.1-2.11-0.1c-0.84,0-1.66,0.05-2.47,0.14c-3.04,0.34-5.88,1.29-8.41,2.73
			c-2.31,1.32-4.36,3.05-6.05,5.08c-1.77,2.13-3.14,4.59-4.01,7.28C9.37,67.6,9,69.88,9,72.24v2.29v1.81v2.9h3.33h3.29h8.21h3.28
			h8.02h3.47h7.66h3.83H53v-2.9v-1.52v-2.58C53,70.05,52.68,67.94,52.08,65.94z"/>
	</g>
	<g>
		<path class="st32" d="M23.011,103.24V84v-4.76H15.62h-3.29H9V84v19.24c0,12.15,9.85,22,22,22c2.45,0,4.804-0.407,7.006-1.146
			C29.292,121.168,23.011,112.94,23.011,103.24z"/>
	</g>
	<g>
		<path class="st32" d="M23.011,74.53v-2.29c0-2.36,0.37-4.64,1.06-6.77c0.87-2.69,2.24-5.15,4.01-7.28
			c1.69-2.03,3.74-3.76,6.05-5.08c1.222-0.695,2.517-1.274,3.871-1.727c-1.56-0.523-3.196-0.881-4.893-1.043
			c-0.69-0.07-1.4-0.1-2.11-0.1c-0.84,0-1.66,0.05-2.47,0.14c-3.04,0.34-5.88,1.29-8.41,2.73c-2.31,1.32-4.36,3.05-6.05,5.08
			c-1.77,2.13-3.14,4.59-4.01,7.28C9.37,67.6,9,69.88,9,72.24v2.29v1.81v2.9h3.33h3.29h7.391v-2.9V74.53z"/>
	</g>
	<g>
		<path class="st32" d="M32.974,137.51v-8.27l0.017-0.141l-0.011-0.179C32.33,128.97,31.67,129,31,129c-1.01,0-2-0.06-2.98-0.17
			l-0.05,0.41v8.27c0,4.74-3.8,8.6-8.54,8.68h5.004C29.174,146.11,32.974,142.25,32.974,137.51z"/>
	</g>
</g>
<path class="st33" d="M61,83h-3v-2c0-0.553-0.447-1-1-1s-1,0.447-1,1v2h-2V72.24c0-2.242-0.323-4.458-0.961-6.583
	c-0.856-2.909-2.274-5.591-4.218-7.974c-0.487-0.592-1.011-1.167-1.555-1.71c-1.487-1.489-3.162-2.759-4.974-3.773
	c-2.795-1.585-5.853-2.546-9.082-2.855c-1.437-0.145-3.098-0.147-4.792,0.042c-3.048,0.341-5.941,1.27-8.604,2.753
	c-0.153,0.048-0.299,0.121-0.422,0.243c-0.003,0.003-0.003,0.006-0.006,0.009c-2.309,1.357-4.359,3.085-6.085,5.159
	c-1.864,2.242-3.264,4.779-4.166,7.539c-0.002,0.004-0.003,0.007-0.004,0.011c-0.007,0.021-0.016,0.04-0.023,0.061
	C8.373,67.434,8,69.815,8,72.24V83H6v-2c0-0.553-0.447-1-1-1s-1,0.447-1,1v2H1c-0.553,0-1,0.447-1,1s0.447,1,1,1h3v18
	c0,7.216,2.811,13.995,7.912,19.086c4.071,4.081,9.39,6.74,15.058,7.591v7.833c0,4.165-3.39,7.61-7.54,7.681h-0.14
	c-0.553,0-1,0.447-1,1s0.447,1,1,1h0.14h0.017H41.3c0.016,0,0.028-0.008,0.043-0.009c0.112,0.004,0.225,0.009,0.337,0.009
	c0.553,0,1-0.447,1-1s-0.447-1-1-1c-0.126-0.001-0.252,0.001-0.399-0.01c-4.082-0.204-7.28-3.574-7.28-7.671v-7.687
	c13.532-1.5,24-13.098,24-26.823V85h3c0.553,0,1-0.447,1-1S61.553,83,61,83z M10.563,67.387l2.083,2.083l-2.641,2.641
	C10.015,70.506,10.199,68.924,10.563,67.387z M14.18,59.703l4.116,4.117l-4.236,4.236l-2.838-2.838
	C11.925,63.236,12.919,61.39,14.18,59.703z M28.184,51.448l1.242,1.242l-4.155,4.155l-3.467-3.466
	C23.813,52.399,25.949,51.747,28.184,51.448z M40.112,53.343l-3.604,3.603l-4.254-4.256l1.279-1.279
	C35.842,51.689,38.045,52.341,40.112,53.343z M30.84,51.276l-0.03-0.03c0.021,0,0.042-0.002,0.062-0.002L30.84,51.276z
	 M30.839,54.104l4.254,4.256l-4.153,4.152l-4.255-4.253L30.839,54.104z M47.927,59.837c1.284,1.751,2.275,3.661,2.956,5.706
	l-2.892,2.892l-4.33-4.332L47.927,59.837z M46.674,78.24l-2.83-2.829l4.148-4.148L52,75.274v0.642l-2.324,2.324H46.674z
	 M35.544,78.24l-3.01-3.01l4.149-4.149l4.332,4.33l-2.829,2.829H35.544z M24.244,78.24l-3.104-3.104l4.237-4.235l4.329,4.329
	l-3.01,3.01H24.244z M12.744,78.24l-2.607-2.607c-0.04-0.04-0.092-0.059-0.137-0.091v-0.598l4.06-4.06l4.252,4.252l-3.105,3.104
	H12.744z M19.726,76.55l1.69,1.69h-3.381L19.726,76.55z M26.791,69.487l4.149-4.147l4.329,4.327l-4.149,4.149L26.791,69.487z
	 M31.12,76.644l1.596,1.596h-3.192L31.12,76.644z M42.429,76.825l1.416,1.415h-2.831L42.429,76.825z M52,72.24v0.205l-2.595-2.596
	l2.108-2.108C51.836,69.212,52,70.719,52,72.24z M46.577,69.849l-4.148,4.148l-4.332-4.33l4.15-4.15L46.577,69.849z M36.683,68.253
	l-4.329-4.327l4.153-4.151l4.326,4.328L36.683,68.253z M29.526,63.926l-4.149,4.147l-4.253-4.253l4.147-4.147L29.526,63.926z
	 M23.963,69.487l-4.237,4.235l-4.252-4.252l4.236-4.236L23.963,69.487z M10,80.24h2.293c0.014,0.001,0.026,0.008,0.04,0.008
	c0.013,0,0.026-0.007,0.04-0.008h33.815c0.026,0.002,0.051,0.015,0.078,0.015c0.025,0,0.048-0.013,0.073-0.015h3.729
	c0.005,0,0.01,0.003,0.015,0.003c0.005,0,0.01-0.003,0.015-0.003H52v23c0,11.579-9.421,21-21,21s-21-9.421-21-21V80.24z
	 M46.66,58.276l-4.413,4.413l-4.326-4.328l4.031-4.03c1.408,0.857,2.721,1.876,3.9,3.057C46.136,57.671,46.392,57.977,46.66,58.276z
	 M19.978,54.381l3.879,3.878l-4.147,4.147l-4.254-4.254C16.788,56.683,18.302,55.42,19.978,54.381z M35.786,145.19H25.136
	c2.322-1.777,3.834-4.565,3.834-7.681v-7.596C29.653,129.965,30.333,130,31,130c0.327,0,0.659-0.007,1-0.021v7.53
	C32,140.635,33.483,143.418,35.786,145.19z M56,103c0,13.002-10.145,23.95-23.096,24.923c-1.732,0.131-3.188,0.092-4.772-0.086
	c-5.568-0.633-10.826-3.177-14.806-7.165C8.602,115.957,6,109.682,6,103V85h2v18.24c0,12.683,10.317,23,23,23s23-10.317,23-23V85h2
	V103z"/>
</svg>
