<?xml version="1.0" encoding="utf-8"?>
<!-- Generator: Adobe Illustrator 19.2.1, SVG Export Plug-In . SVG Version: 6.00 Build 0)  -->
<svg version="1.1" id="Layer_1" xmlns="http://www.w3.org/2000/svg" xmlns:xlink="http://www.w3.org/1999/xlink" x="0px" y="0px"
	 viewBox="0 0 156 150" style="enable-background:new 0 0 156 150;" xml:space="preserve">
<style type="text/css">
	.st0{display:none;fill:none;stroke:#FFFFFF;stroke-width:2;stroke-linecap:round;stroke-miterlimit:10;}
	.st1{fill:#5CDBA9;}
	.st2{fill:#5CDBFF;}
	.st3{fill:#42C18E;}
	.st4{fill:#4DC0FF;}
	.st5{fill:#459571;}
	.st6{fill:#457BA4;}
	.st7{fill:#1A9DED;}
	.st8{fill:#1A71ED;}
	.st9{fill:#58595B;}
</style>
<g>
	<circle class="st7" cx="83" cy="76" r="73"/>
	<path class="st8" d="M30,76C30,39.074,57.415,8.576,93,3.699C89.729,3.251,86.394,3,83,3C42.68,3,10,35.68,10,76s32.68,73,73,73
		c3.394,0,6.729-0.251,10-0.699C57.415,143.424,30,112.926,30,76z"/>
	<g>
		<path class="st9" d="M75,0C33.645,0,0,33.645,0,75c0,41.355,33.645,75,75,75c41.355,0,75-33.645,75-75C150,33.645,116.355,0,75,0z
			 M75,146c-39.149,0-71-31.851-71-71S35.851,4,75,4s71,31.851,71,71S114.149,146,75,146z"/>
		<path class="st9" d="M132.505,40.601c-6.032-10.075-14.644-18.422-24.899-24.137C97.695,10.927,86.421,8,75,8
			c-0.35,0-0.71,0-1.03,0.01c-11.78,0.18-23.318,3.459-33.367,9.484c-10.077,6.034-18.424,14.645-24.139,24.9
			C10.927,52.304,8,63.579,8,75c0,0.35,0,0.709,0.01,1.03c0.18,11.78,3.459,23.318,9.484,33.367
			c6.034,10.077,14.645,18.424,24.9,24.139C52.306,139.073,63.58,142,75,142c0.35,0,0.71,0,1.03-0.01
			c11.782-0.181,23.32-3.46,33.367-9.484c10.076-6.033,18.424-14.645,24.139-24.9C139.073,97.694,142,86.42,142,75
			C142,62.85,138.717,50.955,132.505,40.601z M131.004,103.867l-5.144-2.969l-2,3.465l5.195,2.999
			c-4.981,8.315-11.834,15.393-19.986,20.64l-2.967-5.141l-3.465,2l3,5.198c-8.441,4.704-17.912,7.402-27.638,7.867V132h-4v5.984
			c-9.714-0.155-19.286-2.549-27.867-6.98l2.969-5.144l-3.465-2l-2.999,5.195c-8.314-4.981-15.392-11.834-20.64-19.986l5.141-2.967
			l-2-3.465l-5.198,3C15.237,97.195,12.539,87.725,12.074,78H18v-4h-5.984c0.155-9.715,2.549-19.287,6.98-27.867l5.144,2.969
			l2-3.464l-5.196-2.999c4.981-8.315,11.835-15.393,19.986-20.64l2.967,5.141l3.465-2l-3-5.198
			c8.443-4.705,17.913-7.403,27.638-7.868V18h4v-5.984c9.715,0.155,19.287,2.549,27.867,6.98l-2.969,5.144l3.465,2l2.999-5.196
			c8.316,4.982,15.394,11.835,20.64,19.986l-5.141,2.968l2,3.464l5.197-3c4.716,8.456,7.402,17.92,7.863,27.638H132v4h5.984
			C137.829,85.714,135.435,95.286,131.004,103.867z"/>
		<path class="st9" d="M113.803,42.805c0.733-0.753,1.138-1.75,1.138-2.805c0-1.077-0.422-2.09-1.187-2.854
			c-1.554-1.554-4.099-1.571-5.666-0.041l-2.391,2.321C97.171,32.057,86.308,28,75,28c-25.916,0-47,21.084-47,47s21.084,47,47,47
			s47-21.084,47-47c0-10.828-3.76-21.341-10.586-29.7L113.803,42.805z M110.927,40.026l-34.271,35.8
			c-0.081,0.081-0.135,0.12-0.212,0.167c-0.366,0.233-0.835,0.178-1.176-0.164c-0.349-0.345-0.355-0.917-0.034-1.255l0.064-0.065
			l31.804-30.875L110.927,40.026z M71.016,75.254c0.009,0.562,0.126,1.119,0.324,1.652l-30.289-0.775L41,78.13l0.051-2.11
			L71.016,75.254z M118,75c0,23.71-19.29,43-43,43S32,98.71,32,75c0-23.71,19.29-43,43-43c10.228,0,20.056,3.628,27.816,10.223
			L72.961,71.204l-32.032,0.818c-1.063,0.038-2.052,0.473-2.782,1.224C37.407,74.005,37,75.012,37,76.08
			c0,2.21,1.733,3.988,3.949,4.049l33.994,0.87c0.049,0.002,0.097,0.002,0.145,0.002c1.514,0,2.916-0.693,3.851-1.877
			c0.19-0.144,0.38-0.303,0.578-0.501l29.111-30.41C114.674,55.796,118,65.258,118,75z"/>
	</g>
</g>
</svg>
