<?xml version="1.0" encoding="UTF-8" standalone="no"?>
<svg width="50px" height="47px" viewBox="0 0 50 47" version="1.1" xmlns="http://www.w3.org/2000/svg" xmlns:xlink="http://www.w3.org/1999/xlink">
    <!-- Generator: Sketch 3.8.3 (29802) - http://www.bohemiancoding.com/sketch -->
    <title>Like</title>
    <desc>Created with Sketch.</desc>
    <defs></defs>
    <g id="Page-1" stroke="none" stroke-width="1" fill="none" fill-rule="evenodd">
        <g id="Icons" transform="translate(-965.000000, -2866.000000)">
            <g id="Fill-3918-+-Fill-3920" transform="translate(964.000000, 2866.000000)">
                <path d="M25.85,9.048 C27.869,4.265 32.478,0.923 37.841,0.923 C45.064,0.923 50.266,7.102 50.92,14.466 C50.92,14.466 51.273,16.295 50.496,19.586 C49.438,24.067 46.952,28.05 43.598,31.088 L25.85,46.922 L8.402,31.087 C5.048,28.049 2.562,24.067 1.504,19.584 C0.727,16.294 1.08,14.465 1.08,14.465 C1.734,7.101 6.936,0.922 14.159,0.922 C19.522,0.922 23.832,4.265 25.85,9.048" id="Fill-3918" fill="#CE4F37"></path>
                <path d="M7,17 C6.447,17 6,16.553 6,16 C6,10.486 10.486,6 16,6 C16.553,6 17,6.447 17,7 C17,7.553 16.553,8 16,8 C11.589,8 8,11.589 8,16 C8,16.553 7.553,17 7,17" id="Fill-3920" fill="#F38774"></path>
            </g>
        </g>
    </g>
</svg>